<?xml version="1.0" encoding="utf-8"?>
<!-- Generator: Adobe Illustrator 19.1.0, SVG Export Plug-In . SVG Version: 6.00 Build 0)  -->
<svg version="1.1" id="Layer_1" xmlns="http://www.w3.org/2000/svg" xmlns:xlink="http://www.w3.org/1999/xlink" x="0px" y="0px"
	 viewBox="0 0 200 350" style="enable-background:new 0 0 200 350;" xml:space="preserve">
<style type="text/css">
	.st0{fill:#FAFAFA;}
	.st1{fill:#BD10E0;}
	.st2{fill:#D0021B;}
	.st3{fill:#4A90E2;}
	.st4{fill:#F8E71C;}
	.st5{fill:#4A13E2;}
	.st6{fill:#7ED321;}
	.st7{fill:#F5A623;}
	.st8{fill:#5B5B5B;}
</style>
<rect x="0.9" class="st0" width="200" height="350"/>
<g>
	<path class="st1" d="M55.9,200v80c0,5.5-4.5,10-10,10h0c-5.5,0-10-4.5-10-10v-80"/>
	<path class="st2" d="M165.9,200v80c0,5.5-4.5,10-10,10h0c-5.5,0-10-4.5-10-10v-80"/>
	<path class="st3" d="M52.9,192.9l55,55c3.9,3.9-1.8,7.5-5.6,11.4l4-4.3c-3.9,3.9-8.6,10.9-12.5,7l-55-55"/>
	<path class="st4" d="M93.8,247.9l55-55c3.9-3.9,8.4,1.2,12.3,5.1l-3.6-3.8c3.9,3.9,9.3,9,5.5,12.9l-55,55"/>
	<path class="st5" d="M49,190.5c-0.1,0-0.1,0-0.2-0.1c-0.2-0.1-0.4-0.1-0.6-0.2c-0.1,0-0.2-0.1-0.3-0.1c-0.2,0-0.4-0.1-0.6-0.1
		c-0.1,0-0.3,0-0.4-0.1c-0.3,0-0.5,0-0.8,0c-0.1,0-0.1,0-0.2,0c-0.3,0-0.7,0-1,0.1c0,0,0,0,0,0c-4.7,0.5-8.4,4.2-8.9,8.9
		c0,0,0,0,0,0c0,0.3-0.1,0.7-0.1,1c0,2.6,1,5.1,2.9,7.1l17.1,17.1V200C55.9,195.6,53,191.8,49,190.5z"/>
	<path class="st6" d="M107.9,247.9l-7.1-7.1l-7.1,7.1c-3.9,3.9-3.9,10.3,0,14.1l0,0c3.9,3.9,10.3,3.9,14.1,0l0,0
		C111.8,258.2,111.8,251.8,107.9,247.9z"/>
	<path class="st7" d="M162.9,207.1c1.9-1.9,2.9-4.5,2.9-7.1c0-0.3,0-0.7-0.1-1c0,0,0,0,0,0c-0.5-4.7-4.2-8.4-8.9-8.9c0,0,0,0,0,0
		c-0.3,0-0.7-0.1-1-0.1c-0.1,0-0.1,0-0.2,0c-0.3,0-0.5,0-0.8,0c-0.1,0-0.3,0-0.4,0.1c-0.2,0-0.4,0-0.6,0.1c-0.1,0-0.2,0.1-0.3,0.1
		c-0.2,0.1-0.4,0.1-0.6,0.2c-0.1,0-0.1,0-0.2,0.1c-4,1.3-6.9,5.1-6.9,9.5v24.1L162.9,207.1z"/>
</g>
<g>
	<path class="st8" d="M145.9,150V70c0-5.5,4.5-10,10-10h0c5.5,0,10,4.5,10,10v80"/>
	<path class="st8" d="M35.9,150V70c0-5.5,4.5-10,10-10h0c5.5,0,10,4.5,10,10v80"/>
	<path class="st8" d="M148.8,157.1l-55-55c-3.9-3.9,1.8-7.5,5.6-11.4l-4,4.3c3.9-3.9,8.6-10.9,12.5-7l55,55"/>
	<path class="st8" d="M107.9,102.1l-55,55c-3.9,3.9-8.4-1.2-12.3-5.1l3.6,3.8c-3.9-3.9-9.3-9-5.5-12.9l55-55"/>
	<path class="st8" d="M152.8,159.5c0.1,0,0.1,0,0.2,0.1c0.2,0.1,0.4,0.1,0.6,0.2c0.1,0,0.2,0.1,0.3,0.1c0.2,0,0.4,0.1,0.6,0.1
		c0.1,0,0.3,0,0.4,0.1c0.3,0,0.5,0,0.8,0c0.1,0,0.1,0,0.2,0c0.3,0,0.7,0,1-0.1c0,0,0,0,0,0c4.7-0.5,8.4-4.2,8.9-8.9c0,0,0,0,0,0
		c0-0.3,0.1-0.7,0.1-1c0-2.6-1-5.1-2.9-7.1l-17.1-17.1V150C145.9,154.4,148.8,158.2,152.8,159.5z"/>
	<path class="st8" d="M93.8,102.1l7.1,7.1l7.1-7.1c3.9-3.9,3.9-10.3,0-14.1l0,0c-3.9-3.9-10.3-3.9-14.1,0l0,0
		C89.9,91.8,89.9,98.2,93.8,102.1z"/>
	<path class="st8" d="M38.8,142.9c-1.9,1.9-2.9,4.5-2.9,7.1c0,0.3,0,0.7,0.1,1c0,0,0,0,0,0c0.5,4.7,4.2,8.4,8.9,8.9c0,0,0,0,0,0
		c0.3,0,0.7,0.1,1,0.1c0.1,0,0.1,0,0.2,0c0.3,0,0.5,0,0.8,0c0.1,0,0.3,0,0.4-0.1c0.2,0,0.4,0,0.6-0.1c0.1,0,0.2-0.1,0.3-0.1
		c0.2-0.1,0.4-0.1,0.6-0.2c0.1,0,0.1,0,0.2-0.1c4-1.3,6.9-5.1,6.9-9.5v-24.1L38.8,142.9z"/>
</g>
</svg>
