<?xml version="1.0" encoding="utf-8"?>
<!-- Generator: Adobe Illustrator 19.1.0, SVG Export Plug-In . SVG Version: 6.00 Build 0)  -->
<svg version="1.1" id="Layer_1" xmlns="http://www.w3.org/2000/svg" xmlns:xlink="http://www.w3.org/1999/xlink" x="0px" y="0px"
	 viewBox="0 0 614 350" style="enable-background:new 0 0 614 350;" xml:space="preserve">
<style type="text/css">
	.st0{fill:#FFFFFF;}
</style>
<path class="st0" d="M372,350H242c-19.2,0-35-15.8-35-35V35c0-19.2,15.8-35,35-35h130c19.2,0,35,15.8,35,35v280
	C407,334.3,391.2,350,372,350z"/>
<path class="st0" d="M165,0H35C15.8,0,0,15.8,0,35v280c0,19.2,15.8,35,35,35h130c19.2,0,35-15.8,35-35V35C200,15.8,184.2,0,165,0z
	 M56,224.1V280c0,5.5-4.5,10-10,10s-10-4.5-10-10v-80l0,0l0,0c0-0.3,0-0.7,0.1-1l0,0c0.5-4.7,4.2-8.4,8.9-8.9l0,0
	c0.3,0,0.7-0.1,1-0.1c0.1,0,0.1,0,0.2,0c0.3,0,0.5,0,0.8,0c0.1,0,0.3,0,0.4,0.1c0.2,0,0.4,0,0.6,0.1c0.1,0,0.2,0.1,0.3,0.1
	c0.2,0.1,0.4,0.1,0.6,0.2c0.1,0,0.1,0,0.2,0.1c4,1.3,6.9,5.1,6.9,9.5V224.1z M56,125.9V150c0,4.4-2.9,8.2-6.9,9.5
	c-0.1,0-0.1,0-0.2,0.1c-0.2,0.1-0.4,0.1-0.6,0.2c-0.1,0-0.2,0.1-0.3,0.1c-0.2,0-0.4,0.1-0.6,0.1c-0.1,0-0.3,0-0.4,0.1
	c-0.3,0-0.5,0-0.8,0c-0.1,0-0.1,0-0.2,0c-0.3,0-0.7,0-1-0.1l0,0c-4.7-0.5-8.4-4.2-8.9-8.9l0,0c0-0.3-0.1-0.7-0.1-1l0,0l0,0V70
	c0-5.5,4.5-10,10-10s10,4.5,10,10V125.9z M166,280c0,5.5-4.5,10-10,10s-10-4.5-10-10v-55.9V200c0-4.4,2.9-8.2,6.9-9.5
	c0.1,0,0.1,0,0.2-0.1c0.2-0.1,0.4-0.1,0.6-0.2c0.1,0,0.2-0.1,0.3-0.1c0.2,0,0.4-0.1,0.6-0.1c0.1,0,0.3,0,0.4-0.1c0.3,0,0.5,0,0.8,0
	c0.1,0,0.1,0,0.2,0c0.3,0,0.7,0,1,0.1l0,0c4.7,0.5,8.4,4.2,8.9,8.9l0,0c0,0.3,0.1,0.7,0.1,1l0,0l0,0V280z M166,150L166,150L166,150
	c0,0.3,0,0.7-0.1,1l0,0c-0.5,4.7-4.2,8.4-8.9,8.9l0,0c-0.3,0-0.7,0.1-1,0.1c-0.1,0-0.1,0-0.2,0c-0.3,0-0.5,0-0.8,0
	c-0.1,0-0.3,0-0.4-0.1c-0.2,0-0.4,0-0.6-0.1c-0.1,0-0.2-0.1-0.3-0.1c-0.2-0.1-0.4-0.1-0.6-0.2c-0.1,0-0.1,0-0.2-0.1
	c-4-1.3-6.9-5.1-6.9-9.5v-24.1V70c0-5.5,4.5-10,10-10s10,4.5,10,10V150z"/>
<path class="st0" d="M579,0H449c-19.2,0-35,15.8-35,35v280c0,19.2,15.8,35,35,35h130c19.2,0,35-15.8,35-35V35
	C614,15.8,598.2,0,579,0z M470,224.1V280c0,5.5-4.5,10-10,10s-10-4.5-10-10v-80l0,0l0,0c0-0.3,0-0.7,0.1-1l0,0
	c0.5-4.7,4.2-8.4,8.9-8.9l0,0c0.3,0,0.7-0.1,1-0.1c0.1,0,0.1,0,0.2,0c0.3,0,0.5,0,0.8,0c0.1,0,0.3,0,0.4,0.1c0.2,0,0.4,0,0.6,0.1
	c0.1,0,0.2,0.1,0.3,0.1c0.2,0.1,0.4,0.1,0.6,0.2c0.1,0,0.1,0,0.2,0.1c4,1.3,6.9,5.1,6.9,9.5V224.1z M470,125.9V150
	c0,4.4-2.9,8.2-6.9,9.5c-0.1,0-0.1,0-0.2,0.1c-0.2,0.1-0.4,0.1-0.6,0.2c-0.1,0-0.2,0.1-0.3,0.1c-0.2,0-0.4,0.1-0.6,0.1
	c-0.1,0-0.3,0-0.4,0.1c-0.3,0-0.5,0-0.8,0c-0.1,0-0.1,0-0.2,0c-0.3,0-0.7,0-1-0.1l0,0c-4.7-0.5-8.4-4.2-8.9-8.9l0,0
	c0-0.3-0.1-0.7-0.1-1l0,0l0,0V70c0-5.5,4.5-10,10-10s10,4.5,10,10V125.9z M580,280c0,5.5-4.5,10-10,10s-10-4.5-10-10v-55.9V200
	c0-4.4,2.9-8.2,6.9-9.5c0.1,0,0.1,0,0.2-0.1c0.2-0.1,0.4-0.1,0.6-0.2c0.1,0,0.2-0.1,0.3-0.1c0.2,0,0.4-0.1,0.6-0.1
	c0.1,0,0.3,0,0.4-0.1c0.3,0,0.5,0,0.8,0c0.1,0,0.1,0,0.2,0c0.3,0,0.7,0,1,0.1l0,0c4.7,0.5,8.4,4.2,8.9,8.9l0,0c0,0.3,0.1,0.7,0.1,1
	l0,0l0,0V280z M580,150L580,150L580,150c0,0.3,0,0.7-0.1,1l0,0c-0.5,4.7-4.2,8.4-8.9,8.9l0,0c-0.3,0-0.7,0.1-1,0.1
	c-0.1,0-0.1,0-0.2,0c-0.3,0-0.5,0-0.8,0c-0.1,0-0.3,0-0.4-0.1c-0.2,0-0.4,0-0.6-0.1c-0.1,0-0.2-0.1-0.3-0.1
	c-0.2-0.1-0.4-0.1-0.6-0.2c-0.1,0-0.1,0-0.2-0.1c-4-1.3-6.9-5.1-6.9-9.5v-24.1V70c0-5.5,4.5-10,10-10s10,4.5,10,10V150z"/>
</svg>
