<?xml version="1.0" encoding="utf-8"?>
<!-- Generator: Adobe Illustrator 19.1.0, SVG Export Plug-In . SVG Version: 6.00 Build 0)  -->
<svg version="1.1" id="Layer_1" xmlns="http://www.w3.org/2000/svg" xmlns:xlink="http://www.w3.org/1999/xlink" x="0px" y="0px"
	 viewBox="0 0 200 350" style="enable-background:new 0 0 200 350;" xml:space="preserve">
<style type="text/css">
	.st0{fill:#FFFFFF;}
</style>
<path class="st0" d="M165,0H35C15.8,0,0,15.8,0,35v280c0,19.2,15.8,35,35,35h130c19.2,0,35-15.8,35-35V35C200,15.8,184.2,0,165,0z
	 M56,224.1V280c0,5.5-4.5,10-10,10s-10-4.5-10-10v-80h0c0,0,0,0,0,0c0-0.3,0-0.7,0.1-1c0,0,0,0,0,0c0.5-4.7,4.2-8.4,8.9-8.9
	c0,0,0,0,0,0c0.3,0,0.7-0.1,1-0.1c0.1,0,0.1,0,0.2,0c0.3,0,0.5,0,0.8,0c0.1,0,0.3,0,0.4,0.1c0.2,0,0.4,0,0.6,0.1
	c0.1,0,0.2,0.1,0.3,0.1c0.2,0.1,0.4,0.1,0.6,0.2c0.1,0,0.1,0,0.2,0.1c4,1.3,6.9,5.1,6.9,9.5V224.1z M56,125.9V150
	c0,4.4-2.9,8.2-6.9,9.5c-0.1,0-0.1,0-0.2,0.1c-0.2,0.1-0.4,0.1-0.6,0.2c-0.1,0-0.2,0.1-0.3,0.1c-0.2,0-0.4,0.1-0.6,0.1
	c-0.1,0-0.3,0-0.4,0.1c-0.3,0-0.5,0-0.8,0c-0.1,0-0.1,0-0.2,0c-0.3,0-0.7,0-1-0.1c0,0,0,0,0,0c-4.7-0.5-8.4-4.2-8.9-8.9c0,0,0,0,0,0
	c0-0.3-0.1-0.7-0.1-1c0,0,0,0,0,0h0V70c0-5.5,4.5-10,10-10s10,4.5,10,10V125.9z M166,280c0,5.5-4.5,10-10,10s-10-4.5-10-10v-55.9
	V200c0-4.4,2.9-8.2,6.9-9.5c0.1,0,0.1,0,0.2-0.1c0.2-0.1,0.4-0.1,0.6-0.2c0.1,0,0.2-0.1,0.3-0.1c0.2,0,0.4-0.1,0.6-0.1
	c0.1,0,0.3,0,0.4-0.1c0.3,0,0.5,0,0.8,0c0.1,0,0.1,0,0.2,0c0.3,0,0.7,0,1,0.1c0,0,0,0,0,0c4.7,0.5,8.4,4.2,8.9,8.9c0,0,0,0,0,0
	c0,0.3,0.1,0.7,0.1,1c0,0,0,0,0,0h0V280z M166,150L166,150C166,150,166,150,166,150c0,0.3,0,0.7-0.1,1c0,0,0,0,0,0
	c-0.5,4.7-4.2,8.4-8.9,8.9c0,0,0,0,0,0c-0.3,0-0.7,0.1-1,0.1c-0.1,0-0.1,0-0.2,0c-0.3,0-0.5,0-0.8,0c-0.1,0-0.3,0-0.4-0.1
	c-0.2,0-0.4,0-0.6-0.1c-0.1,0-0.2-0.1-0.3-0.1c-0.2-0.1-0.4-0.1-0.6-0.2c-0.1,0-0.1,0-0.2-0.1c-4-1.3-6.9-5.1-6.9-9.5v-24.1V70
	c0-5.5,4.5-10,10-10s10,4.5,10,10V150z"/>
</svg>
